<svg xmlns="http://www.w3.org/2000/svg" width="256.901" height="256" viewBox="0 0 256.901 256">
  <g id="Group_101671" data-name="Group 101671" transform="translate(-7546.099 1006)">
    <path id="Path_247652" data-name="Path 247652" d="M230.26,182.38l1.075,2.578a7.311,7.311,0,0,0-2.76,1.11,7.128,7.128,0,0,0-2.066,2.107c-1.285,2.062-.759,3.4.19,4,3.013,1.815,6.321-7.465,11.59-4.248,2.381,1.444,2.908,4.578.948,7.671a8.616,8.616,0,0,1-2.261,2.51,8.823,8.823,0,0,1-3.071,1.471l-.969-2.516a6.882,6.882,0,0,0,2.424-1.121,6.711,6.711,0,0,0,1.791-1.952c.906-1.423.779-2.784-.274-3.423-2.677-1.65-6.322,7.506-11.548,4.268-2.381-1.464-3.372-4.371-.99-8.125a9.166,9.166,0,0,1,2.5-2.766A9.39,9.39,0,0,1,230.26,182.38Z" transform="translate(7547 -1006)"/>
    <path id="Path_247653" data-name="Path 247653" d="M223.515,200.2l7.67,6.558-1.981,2.227-7.607-6.516a4.356,4.356,0,0,0-6.069.392,4.147,4.147,0,0,0,.4,5.939l7.607,6.516-1.981,2.227-7.67-6.578c-3.14-2.681-3.667-6.187-.443-9.878S220.375,197.5,223.515,200.2Z" transform="translate(7547 -1006)"/>
    <path id="Path_247654" data-name="Path 247654" d="M210.725,216.262a8.2,8.2,0,0,1,1.695,2.959,8.091,8.091,0,0,1-.748,6.6,8.308,8.308,0,0,1-2.317,2.524,7.663,7.663,0,0,1-3.632,1.674,7.745,7.745,0,0,1-4-.375l1.117-2.536a5.062,5.062,0,0,0,4.846-.763,5.866,5.866,0,0,0,.4-7.847,6.121,6.121,0,0,0-3.677-2.16,6.2,6.2,0,0,0-4.22.747,4.913,4.913,0,0,0-1.471,2.015,4.8,4.8,0,0,0-.278,2.46l-2.761.6a7.391,7.391,0,0,1,.452-3.917,7.548,7.548,0,0,1,2.414-3.156,8.488,8.488,0,0,1,2.966-1.628,8.6,8.6,0,0,1,6.63.64A8.383,8.383,0,0,1,210.725,216.262Z" transform="translate(7547 -1006)"/>
    <path id="Path_247655" data-name="Path 247655" d="M194.627,228.552a8.119,8.119,0,0,1-.7,9.583,8.406,8.406,0,0,1-2.716,2.11,7.709,7.709,0,0,1-7.734,0l1.538-2.33a5.03,5.03,0,0,0,4.889,0,5.972,5.972,0,0,0,2.3-3.562,5.875,5.875,0,0,0-.672-4.162,6.082,6.082,0,0,0-3.308-2.695,6.232,6.232,0,0,0-4.3.108,5.04,5.04,0,0,0-1.794,1.747,4.918,4.918,0,0,0-.714,2.377l-2.824.144a7.413,7.413,0,0,1,1.109-3.793,7.623,7.623,0,0,1,2.916-2.723,8.571,8.571,0,0,1,9.82.556A8.309,8.309,0,0,1,194.627,228.552Z" transform="translate(7547 -1006)"/>
    <path id="Path_247656" data-name="Path 247656" d="M172.921,230.47l5.9,15.467-10.81,3.959-.927-2.433,8.07-2.949-1.538-3.98-7.881,2.887-.906-2.392,7.965-2.846-1.643-4.31-8.05,2.949-.906-2.392Z" transform="translate(7547 -1006)"/>
    <path id="Path_247657" data-name="Path 247657" d="M158.865,237.812l-1.159,2.536a7.355,7.355,0,0,0-2.731-1.162,7.434,7.434,0,0,0-2.979.007c-2.36.5-3.035,1.815-2.8,2.908.738,3.382,9.883-.7,11.168,5.217.569,2.681-1.348,5.238-4.994,5.981a8.852,8.852,0,0,1-6.638-.99l1.159-2.434a7.056,7.056,0,0,0,5.205.866c1.686-.35,2.592-1.4,2.339-2.6-.653-3.011-9.84.846-11.147-5.155-.569-2.7.864-5.424,5.289-6.331a9.439,9.439,0,0,1,7.291,1.155Z" transform="translate(7547 -1006)"/>
    <path id="Path_247658" data-name="Path 247658" d="M140.658,238.781l1.074,16.5L130.206,256l-.169-2.536,8.577-.537-.274-4.248-8.429.516-.169-2.537,8.429-.536-.463-7.135Z" transform="translate(7547 -1006)"/>
    <path id="Path_247659" data-name="Path 247659" d="M123.968,246.04l-.948,9.919-2.908-.248.927-9.857a4.12,4.12,0,0,0-.172-1.632,4.175,4.175,0,0,0-.8-1.443,4.3,4.3,0,0,0-1.3-1.034,4.37,4.37,0,0,0-4.749.48,4.219,4.219,0,0,0-1.057,1.273,4.122,4.122,0,0,0-.479,1.572l-.927,9.858-2.993-.268.928-9.94c.4-4.125,3.055-6.579,7.923-6.187S124.327,241.957,123.968,246.04Z" transform="translate(7547 -1006)"/>
    <path id="Path_247660" data-name="Path 247660" d="M104.814,237.152,100.6,253.175l-2.866-.722,3.477-13.528-7.1-1.773.632-2.475Z" transform="translate(7547 -1006)"/>
    <path id="Path_247661" data-name="Path 247661" d="M90.612,233.295l-6.322,15.343-2.739-1.072L86.819,234.6l-6.743-2.681.948-2.372Z" transform="translate(7547 -1006)"/>
    <path id="Path_247662" data-name="Path 247662" d="M75.354,226.841l-3.329,6.042L73.1,244.411l-2.971-1.568-.653-8.248-7.481,4.124L59,236.863l10.41-5.465,3.33-6.021Z" transform="translate(7547 -1006)"/>
    <path id="Path_247663" data-name="Path 247663" d="M53.335,212.034l-4.657,5.114-1.686,11.466-2.529-2.206,1.349-8.249-8.26,2.248-2.529-2.228,11.442-2.928,4.657-5.135Z" transform="translate(7547 -1006)"/>
    <path id="Path_247664" data-name="Path 247664" d="M43.809,203.1l-13,10.5-7.354-8.7,2-1.629,5.479,6.5,3.351-2.722-5.352-6.352,2-1.629,5.374,6.352,3.73-2.929-5.479-6.475,2-1.629Z" transform="translate(7547 -1006)"/>
    <path id="Path_247665" data-name="Path 247665" d="M27.4,180.483l-2.107,2.68,3.983,6.558,3.435-.6,1.728,2.825-17.891,2.826-1.791-2.991L25.857,177.76Zm-9.251,11.3,8.429-1.464-3.1-5.114Z" transform="translate(7547 -1006)"/>
    <path id="Path_247666" data-name="Path 247666" d="M20.8,165.573l-4.488,5.589,1.075,2.7,5.795-2.207,1.075,2.681L8.619,180.379l-2.7-6.743a4.894,4.894,0,0,1-.154-4.1,4.984,4.984,0,0,1,1.21-1.733,5.123,5.123,0,0,1,1.831-1.094,4.855,4.855,0,0,1,3.414-.208,4.744,4.744,0,0,1,2.676,2.085l4.636-6.187ZM9.9,169.471a2.661,2.661,0,0,0-.938.573,2.6,2.6,0,0,0-.618.9,2.548,2.548,0,0,0,.081,2.116l1.5,3.712,4.994-1.939-1.454-3.67a2.6,2.6,0,0,0-.525-.953,2.668,2.668,0,0,0-.874-.663,2.729,2.729,0,0,0-2.163-.075Z" transform="translate(7547 -1006)"/>
    <path id="Path_247667" data-name="Path 247667" d="M16.163,159.552l-2.613-1.093a6.956,6.956,0,0,0,1.211-2.68,6.881,6.881,0,0,0-.01-2.929c-.527-2.31-1.9-2.949-2.992-2.7-3.456.763.843,9.651-5.2,10.992-2.739.6-5.373-1.258-6.174-4.8a8.3,8.3,0,0,1,.927-6.517l2.508,1.114a6.639,6.639,0,0,0-.822,5.093c.379,1.65,1.475,2.516,2.676,2.269,3.077-.681-.969-9.631,5.142-10.992,2.739-.6,5.542.784,6.532,5.114a8.79,8.79,0,0,1-1.18,7.136Z" transform="translate(7547 -1006)"/>
    <path id="Path_247670" data-name="Path 247670" d="M25.729,73.62l-1.075-2.578a7.3,7.3,0,0,0,2.772-1.1A7.122,7.122,0,0,0,29.5,67.825c1.264-2.062.759-3.4-.211-4-3.013-1.835-6.322,7.465-11.59,4.269-2.4-1.464-2.95-4.6-.969-7.671A8.806,8.806,0,0,1,22.063,56.4l.99,2.536a6.85,6.85,0,0,0-2.424,1.121,6.691,6.691,0,0,0-1.791,1.952c-.906,1.423-.78,2.8.274,3.444,2.7,1.629,6.216-7.527,11.548-4.289,2.381,1.464,3.393,4.372.99,8.125a8.969,8.969,0,0,1-2.491,2.78A9.194,9.194,0,0,1,25.729,73.62Z" transform="translate(7547 -1006)"/>
    <path id="Path_247671" data-name="Path 247671" d="M32.493,55.783,24.822,49.2,26.8,47l7.607,6.62a3.984,3.984,0,0,0,1.43.982,4.061,4.061,0,0,0,3.4-.171,3.958,3.958,0,0,0,1.319-1.12,3.915,3.915,0,0,0,1-1.453,3.845,3.845,0,0,0-.293-3.4,3.955,3.955,0,0,0-1.233-1.269l-7.586-6.517,1.981-2.227,7.713,6.578c3.14,2.681,3.667,6.187.421,9.878S35.632,58.463,32.493,55.783Z" transform="translate(7547 -1006)"/>
    <path id="Path_247672" data-name="Path 247672" d="M45.159,39.739a8.2,8.2,0,0,1-1.7-2.967,8.094,8.094,0,0,1,.76-6.615,8.314,8.314,0,0,1,2.331-2.523,7.659,7.659,0,0,1,3.622-1.668,7.742,7.742,0,0,1,3.985.368L53.04,28.871a5.125,5.125,0,0,0-4.847.763,5.682,5.682,0,0,0-1.51,1.769,5.542,5.542,0,0,0-.368,4.5,5.627,5.627,0,0,0,1.2,1.981,5.749,5.749,0,0,0,1.742,1.569,5.891,5.891,0,0,0,6.687-.517,4.953,4.953,0,0,0,1.47-2.026,4.851,4.851,0,0,0,.279-2.47l2.76-.6a7.4,7.4,0,0,1-.44,3.924,7.562,7.562,0,0,1-2.4,3.17,8.472,8.472,0,0,1-3.02,1.73,8.592,8.592,0,0,1-6.814-.655A8.372,8.372,0,0,1,45.159,39.739Z" transform="translate(7547 -1006)"/>
    <path id="Path_247673" data-name="Path 247673" d="M61.384,27.427a8.115,8.115,0,0,1,.7-9.583,8.4,8.4,0,0,1,2.716-2.11,7.707,7.707,0,0,1,7.734,0l-1.538,2.33a5.111,5.111,0,0,0-4.91,0,5.742,5.742,0,0,0-1.793,1.488,5.6,5.6,0,0,0-1.038,2.064,5.548,5.548,0,0,0,.723,4.449,5.69,5.69,0,0,0,1.448,1.8,5.833,5.833,0,0,0,2.06,1.1,5.907,5.907,0,0,0,4.563-.508,4.984,4.984,0,0,0,1.789-1.747,4.849,4.849,0,0,0,.7-2.378l2.824-.144a7.406,7.406,0,0,1-1.108,3.793,7.622,7.622,0,0,1-2.916,2.723,8.57,8.57,0,0,1-9.78-.638A8.282,8.282,0,0,1,61.384,27.427Z" transform="translate(7547 -1006)"/>
    <path id="Path_247674" data-name="Path 247674" d="M83.068,25.509l-5.9-15.466L88,6.187l.906,2.392L80.856,11.4l1.517,4,7.9-2.887.906,2.392-7.9,2.887,1.665,4.31,8.05-2.949L93.9,21.55Z" transform="translate(7547 -1006)"/>
    <path id="Path_247675" data-name="Path 247675" d="M97.1,18.168l1.159-2.536a7.289,7.289,0,0,0,5.689,1.155c2.382-.474,3.056-1.815,2.824-2.908C106.036,10.5,96.89,14.6,95.6,8.662c-.569-2.681,1.349-5.238,4.994-5.98a8.847,8.847,0,0,1,6.638.99l-1.18,2.516a6.934,6.934,0,0,0-5.205-.866c-1.665.33-2.571,1.382-2.318,2.578.653,3.011,9.841-.825,11.147,5.176.569,2.681-.885,5.4-5.31,6.331a9.4,9.4,0,0,1-7.27-1.237Z" transform="translate(7547 -1006)"/>
    <path id="Path_247676" data-name="Path 247676" d="M115.288,17.2,114.213.7,125.761,0l.168,2.536-8.6.536.274,4.248,8.429-.516.168,2.536-8.429.536.464,7.135Z" transform="translate(7547 -1006)"/>
    <path id="Path_247677" data-name="Path 247677" d="M132.04,9.94,132.988,0l2.993.268-.949,9.857a4.156,4.156,0,0,0,.973,3.082,4.372,4.372,0,0,0,6.065.554,4.188,4.188,0,0,0,1.539-2.853l.927-9.837,2.971.268-.948,9.94c-.379,4.124-3.035,6.578-7.923,6.186a6.632,6.632,0,0,1-2.825-.541,6.507,6.507,0,0,1-2.311-1.68,6.324,6.324,0,0,1-1.344-2.491A6.228,6.228,0,0,1,132.04,9.94Z" transform="translate(7547 -1006)"/>
    <path id="Path_247678" data-name="Path 247678" d="M151.133,18.828l4.214-16,2.7.7-3.393,13.549,7.207,1.774-.632,2.475Z" transform="translate(7547 -1006)"/>
    <path id="Path_247679" data-name="Path 247679" d="M165.418,22.684,171.74,7.342,174.5,8.414l-5.268,12.971,6.911,2.681-.948,2.372Z" transform="translate(7547 -1006)"/>
    <path id="Path_247680" data-name="Path 247680" d="M180.654,29.221l3.33-6.022-1.1-11.528,2.992,1.567.654,8.352,7.48-4.124,2.993,1.588-10.431,5.465L183.33,30.6Z" transform="translate(7547 -1006)"/>
    <path id="Path_247681" data-name="Path 247681" d="M202.676,43.945l4.657-5.114,1.686-11.486,2.529,2.207L210.2,37.8l8.261-2.248,2.528,2.207-11.442,2.949-4.657,5.114Z" transform="translate(7547 -1006)"/>
    <path id="Path_247682" data-name="Path 247682" d="M212.2,52.875l12.98-10.517,7.376,8.723-2.108,1.608-5.457-6.475-3.372,2.722,5.374,6.352L224.884,56.9l-5.373-6.352-3.625,2.949,5.479,6.475L219.258,61.6Z" transform="translate(7547 -1006)"/>
    <path id="Path_247683" data-name="Path 247683" d="M228.488,75.455l2.107-2.681-3.961-6.516-3.435.6-1.707-2.825,17.87-2.866,1.9,3.114L230.216,78.363ZM237.844,64.2l-8.429,1.464,3.1,5.114Z" transform="translate(7547 -1006)"/>
    <path id="Path_247684" data-name="Path 247684" d="M235.211,90.406l4.488-5.65-1.075-2.681-5.858,2.248-1.1-2.7,15.7-6.042,2.719,6.743a4.938,4.938,0,0,1,.145,4.107,5.042,5.042,0,0,1-1.206,1.738,5.168,5.168,0,0,1-1.826,1.1,4.838,4.838,0,0,1-3.421.206,4.719,4.719,0,0,1-2.669-2.1l-4.636,6.187ZM246.1,86.488a2.624,2.624,0,0,0,.924-.576,2.561,2.561,0,0,0,.6-.9,2.513,2.513,0,0,0-.114-2.094l-1.475-3.712-4.994,1.918,1.5,3.712a2.565,2.565,0,0,0,.524.951,2.631,2.631,0,0,0,.878.657,2.685,2.685,0,0,0,2.159.042Z" transform="translate(7547 -1006)"/>
    <path id="Path_247685" data-name="Path 247685" d="M239.847,96.428l2.613,1.093a6.969,6.969,0,0,0-1.138,5.589c.548,2.33,1.918,2.969,3.013,2.722,3.456-.763-.844-9.651,5.2-10.992,2.74-.6,5.354,1.258,6.175,4.8a8.4,8.4,0,0,1-.927,6.517l-2.508-1.114a6.569,6.569,0,0,0,.8-5.114c-.358-1.629-1.454-2.516-2.655-2.248-3.076.681.969,9.63-5.142,10.971-2.74.619-5.542-.763-6.554-5.094a8.847,8.847,0,0,1,1.118-7.135Z" transform="translate(7547 -1006)"/>
    <path id="Path_247686" data-name="Path 247686" d="M5.027-12.609a3.962,3.962,0,0,1-.674,2.273A4.585,4.585,0,0,1,2.531-8.777,4.89,4.89,0,0,1,4.646-7.1a4.217,4.217,0,0,1,.779,2.5A4.459,4.459,0,0,1,3.932-1.078,5.74,5.74,0,0,1,0,.234,5.715,5.715,0,0,1-3.943-1.084,4.479,4.479,0,0,1-5.426-4.605,4.343,4.343,0,0,1-4.67-7.1,4.7,4.7,0,0,1-2.578-8.789a4.472,4.472,0,0,1-1.793-1.559,4.019,4.019,0,0,1-.656-2.262,4.41,4.41,0,0,1,1.383-3.422A5.187,5.187,0,0,1,0-17.3a5.192,5.192,0,0,1,3.639,1.266A4.4,4.4,0,0,1,5.027-12.609ZM3.258-4.652A3.145,3.145,0,0,0,2.35-6.984a3.221,3.221,0,0,0-2.373-.9A3.164,3.164,0,0,0-2.373-7a3.18,3.18,0,0,0-.885,2.344A3.029,3.029,0,0,0-2.4-2.367,3.306,3.306,0,0,0,0-1.535a3.3,3.3,0,0,0,2.391-.838A3.022,3.022,0,0,0,3.258-4.652ZM0-15.516a2.8,2.8,0,0,0-2.068.791,2.906,2.906,0,0,0-.791,2.15,2.892,2.892,0,0,0,.779,2.1,2.766,2.766,0,0,0,2.08.8,2.766,2.766,0,0,0,2.08-.8,2.892,2.892,0,0,0,.779-2.1A2.893,2.893,0,0,0,2.051-14.7,2.758,2.758,0,0,0,0-15.516Z" transform="matrix(0.259, -0.966, 0.966, 0.259, 7564.21, -908.3)"/>
    <path id="Path_247687" data-name="Path 247687" d="M5.027-12.609a3.962,3.962,0,0,1-.674,2.273A4.585,4.585,0,0,1,2.531-8.777,4.89,4.89,0,0,1,4.646-7.1a4.217,4.217,0,0,1,.779,2.5A4.459,4.459,0,0,1,3.932-1.078,5.74,5.74,0,0,1,0,.234,5.715,5.715,0,0,1-3.943-1.084,4.479,4.479,0,0,1-5.426-4.605,4.343,4.343,0,0,1-4.67-7.1,4.7,4.7,0,0,1-2.578-8.789a4.472,4.472,0,0,1-1.793-1.559,4.019,4.019,0,0,1-.656-2.262,4.41,4.41,0,0,1,1.383-3.422A5.187,5.187,0,0,1,0-17.3a5.192,5.192,0,0,1,3.639,1.266A4.4,4.4,0,0,1,5.027-12.609ZM3.258-4.652A3.145,3.145,0,0,0,2.35-6.984a3.221,3.221,0,0,0-2.373-.9A3.164,3.164,0,0,0-2.373-7a3.18,3.18,0,0,0-.885,2.344A3.029,3.029,0,0,0-2.4-2.367,3.306,3.306,0,0,0,0-1.535a3.3,3.3,0,0,0,2.391-.838A3.022,3.022,0,0,0,3.258-4.652ZM0-15.516a2.8,2.8,0,0,0-2.068.791,2.906,2.906,0,0,0-.791,2.15,2.892,2.892,0,0,0,.779,2.1,2.766,2.766,0,0,0,2.08.8,2.766,2.766,0,0,0,2.08-.8,2.892,2.892,0,0,0,.779-2.1A2.893,2.893,0,0,0,2.051-14.7,2.758,2.758,0,0,0,0-15.516Z" transform="matrix(0.259, -0.966, 0.966, 0.259, 7801.369, -845.3)"/>
  </g>
</svg>
