<svg xmlns="http://www.w3.org/2000/svg" width="148" height="53" viewBox="0 0 148 53">
  <g id="Group_223566" data-name="Group 223566" transform="translate(-17882 22489)">
    <rect id="Rectangle_54350" data-name="Rectangle 54350" width="148" height="53" transform="translate(17882 -22489)" fill="none"/>
    <g id="SrashtaSoft_logo" data-name="SrashtaSoft logo" transform="translate(-4605.789 -47735.602)">
      <g id="_2059632276208" transform="translate(22488.789 25256.602)">
        <path id="Path_11482" data-name="Path 11482" d="M25082.5,26332.465h5.713c.07.018.105.088.105.209v.273a2.3,2.3,0,0,1-1.812,2.295,1.377,1.377,0,0,1-.559.074h-1.984c-.381,0-.57.242-.57.715v8.316l-.074.078h-2.7l-.076-.078v-9.818a2.261,2.261,0,0,1,1.613-2.033Zm7.117-.055h6.389q4.131,0,5.408,3.289a4.552,4.552,0,0,1,.215,1.355v4.533a2.775,2.775,0,0,1-2.129,2.775l-.6.063h-5.672a3.825,3.825,0,0,1-3.273-1.918,2.7,2.7,0,0,1-.439-1.359v-.541q0-2.719,2.992-3.494l.721-.059h5.508a1.838,1.838,0,0,0-1.418-1.8,10.621,10.621,0,0,0-1.795-.115h-3.5a2.672,2.672,0,0,1-2.41-1.641l-.1-.654v-.324Zm2.672,8.361q0,.861,1.537.918h4.092c.549-.047.818-.318.818-.818v-1.082h-5.289a1.038,1.038,0,0,0-1.158.861Zm14.793-8.318h8.029c.248.016.379.131.379.336a2.548,2.548,0,0,1-2.061,2.531l-.469.043h-5.773c-.547.064-.818.32-.818.758v.1c0,.447.271.7.818.762h4q3.091,0,4,2.236a4.515,4.515,0,0,1,.338,1.725,3.629,3.629,0,0,1-2,3.1,3.532,3.532,0,0,1-1.576.381h-8.244a.4.4,0,0,1-.246-.381,2.365,2.365,0,0,1,1.871-2.383,1.012,1.012,0,0,1,.51-.1h5.641a1.039,1.039,0,0,0,1.1-.615v-.377c-.09-.451-.408-.676-.971-.676h-4a3.907,3.907,0,0,1-4.006-2.529,6.948,6.948,0,0,1-.191-1.477,3.587,3.587,0,0,1,2.236-3.158,4.016,4.016,0,0,1,1.43-.273Zm10.688-4.766a2.706,2.706,0,0,1,2.674,1.943,2.463,2.463,0,0,1,.115.732v1.889h2.781a5.985,5.985,0,0,1,4,1.84,6.335,6.335,0,0,1,1.668,4.385v5.871l-.078.076h-2.746l-.076-.076v-5.977a3.163,3.163,0,0,0-2.318-3.129l-.662-.115h-2.572v9.221l-.07.078h-2.748l-.074-.078v-16.588C25117.668,26327.709,25117.7,26327.688,25117.771,26327.688Zm15.332.012a2.725,2.725,0,0,1,2.674,1.945,2.753,2.753,0,0,1,.1.734v1.912h2.75l.074.074a2.687,2.687,0,0,1-1.887,2.674,3.318,3.318,0,0,1-.937.135v6.371h.482a2.713,2.713,0,0,1,2.779,1.869,3.029,3.029,0,0,1,.146.934l-.074.078h-3.26a2.761,2.761,0,0,1-2.85-1.947,2.653,2.653,0,0,1-.105-.73v-6.574h-2.748l-.068-.062a2.679,2.679,0,0,1,1.869-2.672,2.957,2.957,0,0,1,.947-.15v-4.514c0-.051.035-.078.105-.078Zm7.729,4.711h6.393q4.128,0,5.4,3.289a4.433,4.433,0,0,1,.217,1.355v4.533a2.777,2.777,0,0,1-2.129,2.775l-.6.063h-5.67a3.827,3.827,0,0,1-3.273-1.918,2.7,2.7,0,0,1-.441-1.359v-.541q0-2.719,3-3.494l.719-.059h5.508a1.836,1.836,0,0,0-1.416-1.8,10.663,10.663,0,0,0-1.8-.115h-3.492a2.68,2.68,0,0,1-2.416-1.641l-.1-.654v-.324Zm2.674,8.361q0,.861,1.539.918h4.09c.547-.047.818-.318.818-.818v-1.082h-5.289a1.037,1.037,0,0,0-1.158.861Z" transform="translate(-25059.584 -26319.029)" fill="#4185f4"/>
        <path id="Path_11483" data-name="Path 11483" d="M34320.535,26320.316h11.914c.047,0,.07.039.07.119a3.216,3.216,0,0,1-2.234,3.158,3.938,3.938,0,0,1-1.125.162h-8.266a1.572,1.572,0,0,0-1.648,1.24l-.043.295c0,.98.57,1.535,1.691,1.66h6.48a4.861,4.861,0,0,1,4.9,3.361,5.675,5.675,0,0,1,.336,2.037,4.947,4.947,0,0,1-2.211,3.9,5.17,5.17,0,0,1-2.566.787h-11.926c-.047,0-.062-.043-.062-.133a3.2,3.2,0,0,1,2.234-3.143,3.519,3.519,0,0,1,1.121-.172h8.266a1.577,1.577,0,0,0,1.648-1.244l.043-.295c0-.982-.566-1.535-1.691-1.648h-6.027q-3.984,0-5.352-3.287a6.88,6.88,0,0,1-.332-2.123,4.94,4.94,0,0,1,2.2-3.9A5.218,5.218,0,0,1,34320.535,26320.316Zm20.16,4.795h.23a5.913,5.913,0,0,1,5.844,5.732v.424a5.94,5.94,0,0,1-5.723,5.773h-.426a5.916,5.916,0,0,1-5.77-5.82v-.293a5.965,5.965,0,0,1,5.844-5.816Zm-3.012,5.893a3.1,3.1,0,1,0,4.781-2.588,3.121,3.121,0,0,0-1.684-.512,3.059,3.059,0,0,0-2.586,1.418A3.142,3.142,0,0,0,34337.684,26331Zm14.895-10.758h4.852l.074.07v.135a2.731,2.731,0,0,1-1.828,2.568,3.511,3.511,0,0,1-1.215.189h-.672a.286.286,0,0,0-.32.326v1.854h3.145l.074.076v.453a2.584,2.584,0,0,1-1.582,2.221,3.531,3.531,0,0,1-1.285.219h-.352v8.605l-.074.078h-2.82l-.074-.078v-8.605h-1.754l-.074-.074v-.537a2.574,2.574,0,0,1,1.438-2.1l.391-.152v-3.113a1.987,1.987,0,0,1,1.609-2.1Zm7.688.07a2.72,2.72,0,0,1,2.672,1.945,3.115,3.115,0,0,1,.105.734v1.91h2.746l.074.072a2.687,2.687,0,0,1-1.891,2.678,3.13,3.13,0,0,1-.93.133v6.373h.48a2.716,2.716,0,0,1,2.781,1.871,3.128,3.128,0,0,1,.141.93l-.074.078h-3.254a2.756,2.756,0,0,1-2.852-1.947,2.685,2.685,0,0,1-.1-.727v-6.574h-2.754l-.066-.061a2.684,2.684,0,0,1,1.871-2.678,3.07,3.07,0,0,1,.949-.148v-4.516C34360.164,26320.344,34360.2,26320.316,34360.266,26320.316Z" transform="translate(-34220.129 -26311.646)" fill="#656565"/>
        <path id="Path_11484" data-name="Path 11484" d="M31732.662,28816.271a1.933,1.933,0,0,1-.779.154,1.347,1.347,0,0,1-1.422-1.49,1.375,1.375,0,0,1,1.443-1.523,1.716,1.716,0,0,1,.746.154l.117-.391a2.01,2.01,0,0,0-.877-.164,1.842,1.842,0,0,0-1.934,1.943,1.733,1.733,0,0,0,1.826,1.877,2.368,2.368,0,0,0,.977-.182Zm.662.5h.48v-1.412a1.462,1.462,0,0,1,.02-.229.682.682,0,0,1,.648-.621.958.958,0,0,1,.166.018v-.455a.642.642,0,0,0-.139-.016.8.8,0,0,0-.734.58h-.021l-.018-.521h-.422c.016.25.02.516.02.832Zm3.879-1.238c.008-.076.014-.15.016-.229a1.125,1.125,0,0,0-1.1-1.248,1.29,1.29,0,0,0-1.246,1.434,1.238,1.238,0,0,0,1.307,1.344,2.225,2.225,0,0,0,.883-.168l-.082-.348a1.8,1.8,0,0,1-.736.135.848.848,0,0,1-.91-.92Zm-1.863-.346a.806.806,0,0,1,.74-.787.69.69,0,0,1,.67.787Zm4.34-.045c0-.533-.2-1.086-1.008-1.086a1.634,1.634,0,0,0-.873.236l.109.316a1.338,1.338,0,0,1,.691-.2.547.547,0,0,1,.6.615v.057c-1.025-.008-1.6.344-1.6.986a.757.757,0,0,0,.811.764.986.986,0,0,0,.813-.4h.018l.037.334h.439a4.04,4.04,0,0,1-.045-.633Zm-.465.736a.535.535,0,0,1-.027.154.657.657,0,0,1-.641.443.428.428,0,0,1-.457-.459c0-.518.6-.611,1.125-.6Zm1.334-2.25v.486h-.412v.367h.412v1.449a.982.982,0,0,0,.188.693.672.672,0,0,0,.52.209,1.128,1.128,0,0,0,.432-.072l-.025-.363a.843.843,0,0,1-.279.033c-.27,0-.363-.186-.363-.516v-1.434h.693v-.367h-.693v-.637Zm2.189,3.143v-2.656h-.482v2.656Zm-.24-3.7a.307.307,0,0,0-.217.086.3.3,0,0,0-.086.215.287.287,0,0,0,.293.3.3.3,0,0,0,.223-.512.288.288,0,0,0-.213-.084Zm.713,1.041,1.01,2.656h.461l1.041-2.656h-.5l-.516,1.494c-.086.24-.166.461-.223.68h-.016c-.064-.23-.133-.457-.217-.68l-.521-1.494Zm3.451,2.656v-2.656h-.482v2.656Zm-.242-3.7a.306.306,0,0,0-.215.086.3.3,0,0,0,.205.512.286.286,0,0,0,.309-.3.283.283,0,0,0-.084-.215.29.29,0,0,0-.215-.088Zm1.154.555v.486h-.412v.367h.412v1.449a.973.973,0,0,0,.188.693.672.672,0,0,0,.52.209,1.118,1.118,0,0,0,.43-.072l-.021-.363a.861.861,0,0,1-.281.033c-.27,0-.361-.186-.361-.516v-1.434h.689v-.367h-.689v-.637Zm1.4.486.982,2.449a.393.393,0,0,1,.033.127.383.383,0,0,1-.039.115,1.507,1.507,0,0,1-.406.537,1.309,1.309,0,0,1-.42.234l.119.406a1.279,1.279,0,0,0,.592-.312,4.036,4.036,0,0,0,.912-1.66l.725-1.9h-.51l-.527,1.561c-.068.189-.121.395-.172.555h-.012c-.043-.16-.105-.369-.168-.543l-.58-1.572h-.527Zm4.475,1.795a.573.573,0,0,0,.41-.166.577.577,0,0,0-.414-.982.573.573,0,0,0-.572.578.563.563,0,0,0,.164.406.557.557,0,0,0,.406.164Zm2.354-2.836v3.7h.477v-3.7Zm1.35,3.7h.482v-1.6a.726.726,0,0,1,.031-.225.685.685,0,0,1,.648-.494c.457,0,.615.357.615.785v1.529h.484v-1.584c0-.912-.574-1.131-.939-1.131a.971.971,0,0,0-.877.5h-.012l-.025-.441h-.432c.018.221.023.447.023.721Zm3.047,0h.48v-1.6a.728.728,0,0,1,.033-.225.685.685,0,0,1,.648-.494c.457,0,.615.357.615.785v1.529h.482v-1.584c0-.912-.572-1.131-.937-1.131a.972.972,0,0,0-.879.5h-.01l-.029-.441h-.428c.018.221.023.447.023.721Zm4.17-2.715a1.3,1.3,0,0,0-1.318,1.408,1.264,1.264,0,0,0,1.273,1.369,1.3,1.3,0,0,0,1.322-1.412,1.253,1.253,0,0,0-1.275-1.367Zm-.01.363c.568,0,.793.568.793,1.018,0,.6-.346,1.035-.807,1.035s-.807-.439-.807-1.023C31763.543,28814.945,31763.791,28814.418,31764.363,28814.418Zm1.531-.3,1.008,2.656h.463l1.041-2.656h-.5l-.518,1.494c-.086.242-.162.461-.223.68h-.018a5.974,5.974,0,0,0-.217-.68l-.518-1.494Zm4.813,1.027c0-.533-.2-1.086-1.012-1.086a1.622,1.622,0,0,0-.871.236l.111.316a1.322,1.322,0,0,1,.691-.2.547.547,0,0,1,.6.615v.057c-1.025-.008-1.6.344-1.6.986a.757.757,0,0,0,.811.764.992.992,0,0,0,.814-.4h.016l.037.334h.439a3.815,3.815,0,0,1-.043-.633Zm-.465.736a.615.615,0,0,1-.029.154.658.658,0,0,1-.643.443.427.427,0,0,1-.455-.459c0-.518.6-.611,1.127-.6Zm1.332-2.25v.486h-.414v.367h.414v1.449a.992.992,0,0,0,.186.693.676.676,0,0,0,.521.209,1.118,1.118,0,0,0,.43-.072l-.021-.363a.861.861,0,0,1-.281.033c-.268,0-.363-.186-.363-.516v-1.434h.691v-.367h-.691v-.637Zm2.189,3.143v-2.656h-.484v2.656Zm-.244-3.7a.3.3,0,0,0-.211.086.288.288,0,0,0-.09.215.29.29,0,0,0,.293.3.287.287,0,0,0,.309-.3.29.29,0,0,0-.3-.3Zm2.17.982a1.3,1.3,0,0,0-1.316,1.408,1.264,1.264,0,0,0,1.271,1.369,1.3,1.3,0,0,0,1.322-1.412,1.255,1.255,0,0,0-1.275-1.367Zm-.01.363c.57,0,.795.568.795,1.018,0,.6-.346,1.035-.807,1.035s-.809-.439-.809-1.023C31774.859,28814.939,31775.107,28814.418,31775.68,28814.418Zm1.9,2.352h.482v-1.6a.8.8,0,0,1,.033-.225.681.681,0,0,1,.648-.494c.455,0,.613.357.613.785v1.529h.482v-1.584c0-.912-.568-1.129-.939-1.129a.977.977,0,0,0-.877.5h-.01l-.027-.441h-.428c.016.221.021.447.021.721Zm4.582-.861a.567.567,0,0,0,.576-.574.576.576,0,0,0-1.152,0,.564.564,0,0,0,.168.406.557.557,0,0,0,.4.164Zm2.17.682a1.885,1.885,0,0,0,.941.242c.873,0,1.3-.5,1.3-1.07,0-.543-.318-.846-.943-1.09-.51-.2-.738-.365-.738-.711,0-.252.193-.553.7-.553a1.452,1.452,0,0,1,.7.174l.131-.391a1.715,1.715,0,0,0-.816-.18,1.066,1.066,0,0,0-1.2,1c0,.523.375.838.977,1.049.5.193.7.389.7.736,0,.373-.287.631-.775.631a1.685,1.685,0,0,1-.857-.24Zm5.1-2.477h-.484v1.633a.68.68,0,0,1-.68.684c-.441,0-.594-.34-.594-.846v-1.471h-.482v1.555c0,.932.5,1.164.918,1.164a1,1,0,0,0,.875-.494h.014l.025.432h.43c-.018-.207-.021-.449-.021-.723Zm2.609,2.2a1.362,1.362,0,0,1-.59.131,1,1,0,0,1,.016-2,1.081,1.081,0,0,1,.559.127l.111-.373a1.583,1.583,0,0,0-.67-.137,1.348,1.348,0,0,0-1.428,1.408,1.268,1.268,0,0,0,1.322,1.363,1.805,1.805,0,0,0,.764-.16Zm2.428,0a1.377,1.377,0,0,1-.592.131,1,1,0,0,1,.016-2,1.1,1.1,0,0,1,.561.127l.109-.373a1.583,1.583,0,0,0-.67-.137,1.347,1.347,0,0,0-1.426,1.408,1.267,1.267,0,0,0,1.322,1.363,1.8,1.8,0,0,0,.762-.16Zm2.748-.779a1.774,1.774,0,0,0,.02-.229,1.126,1.126,0,0,0-1.1-1.248,1.29,1.29,0,0,0-1.244,1.434,1.238,1.238,0,0,0,1.307,1.344,2.205,2.205,0,0,0,.881-.168l-.08-.348a1.8,1.8,0,0,1-.738.135.85.85,0,0,1-.91-.92Zm-1.859-.346a.8.8,0,0,1,.74-.785.686.686,0,0,1,.67.785Zm2.291,1.459a1.515,1.515,0,0,0,.744.188c.631,0,.994-.336.994-.8,0-.4-.236-.627-.7-.8-.346-.133-.5-.234-.5-.453,0-.2.158-.359.443-.359a1,1,0,0,1,.543.152l.121-.352a1.289,1.289,0,0,0-.652-.162.819.819,0,0,0-.918.777c0,.316.227.58.705.75.354.133.492.26.492.49s-.164.4-.516.4a1.26,1.26,0,0,1-.635-.193Zm2.17,0a1.541,1.541,0,0,0,.748.188c.633,0,.992-.336.992-.8,0-.4-.234-.627-.7-.8-.348-.133-.5-.234-.5-.453,0-.2.156-.359.443-.359a1.022,1.022,0,0,1,.545.152l.119-.352a1.321,1.321,0,0,0-.652-.164.818.818,0,0,0-.916.779c0,.316.223.58.7.75.357.133.494.26.494.49s-.166.4-.516.4a1.267,1.267,0,0,1-.637-.193Z" transform="translate(-31655.236 -28784.258)" fill="#656565"/>
        <g id="Group_4130" data-name="Group 4130" transform="translate(0 0)">
          <path id="Path_11485" data-name="Path 11485" d="M24095.6,25270.168h6.166l-6.166-6.168Z" transform="translate(-24082.609 -25263.943)" fill="#34a853" fill-rule="evenodd"/>
          <path id="Path_11486" data-name="Path 11486" d="M24101.887,26069.865v-6.166h-6.225a17.954,17.954,0,0,0,1.512,1.543l3.891,3.891C24101.275,26069.346,24101.605,26069.793,24101.887,26069.865Z" transform="translate(-24082.668 -26057.176)" fill="#ea4335" fill-rule="evenodd"/>
          <path id="Path_11487" data-name="Path 11487" d="M23288.5,25262.885h6.227v-6.287h-6.227Z" transform="translate(-23282.033 -25256.598)" fill="#fbbc05" fill-rule="evenodd"/>
          <path id="Path_11488" data-name="Path 11488" d="M22505.5,25284.758l6.018,6.047.016-12.047Z" transform="translate(-22505.367 -25278.582)" fill="#4285f4" fill-rule="evenodd"/>
          <path id="Path_11489" data-name="Path 11489" d="M23288.5,26062.41h6.109l-6.109-6.107Z" transform="translate(-23282.033 -26049.836)" fill="#ea4335" fill-rule="evenodd"/>
          <path id="Path_11490" data-name="Path 11490" d="M23301.951,26848.6h-6.053l6.031,6.061Z" transform="translate(-23289.373 -26835.732)" fill="#34a853" fill-rule="evenodd"/>
          <path id="Path_11491" data-name="Path 11491" d="M24080.8,26874.039l6.227-6.2v-.029l-6.211-6.184Z" transform="translate(-24067.932 -26848.65)" fill="#4285f4" fill-rule="evenodd"/>
          <path id="Path_11492" data-name="Path 11492" d="M23288.5,27647.125h6.109v-6.227h-6.109Z" transform="translate(-23282.033 -27621.619)" fill="#fbbc05" fill-rule="evenodd"/>
          <path id="Path_11493" data-name="Path 11493" d="M22502.41,27647.006v-6.107h-6.109Z" transform="translate(-22496.242 -27621.619)" fill="#33a853" fill-rule="evenodd"/>
          <path id="Path_11494" data-name="Path 11494" d="M22488.791,26847.26h6.166a40.914,40.914,0,0,0-3.039-3.127,40.493,40.493,0,0,0-3.127-3.039Z" transform="translate(-22488.791 -26828.283)" fill="#ea4235" fill-rule="evenodd"/>
        </g>
      </g>
    </g>
  </g>
</svg>
